<svg viewBox="0 0 1362 400" fill="none" xmlns="http://www.w3.org/2000/svg">
<path d="M380.496 286.324C406.501 312.329 406.501 354.491 380.496 380.496C354.491 406.501 312.329 406.501 286.324 380.496C260.319 354.491 260.319 312.329 286.324 286.324C312.329 260.319 354.491 260.319 380.496 286.324Z" fill="#FF5050"/>
<path d="M270.629 82.285C296.634 56.2801 338.796 56.2801 364.801 82.285C390.806 108.29 390.806 150.452 364.801 176.457L270.629 270.629L176.457 364.801C150.452 390.806 108.29 390.806 82.285 364.801C56.2801 338.796 56.2801 296.634 82.285 270.629L176.457 176.457L270.629 82.285Z" fill="#FFD040"/>
<path d="M113.676 19.5037C139.681 -6.50122 181.843 -6.50122 207.848 19.5037C233.853 45.5085 233.853 87.6708 207.848 113.676L113.676 207.848C87.6708 233.853 45.5085 233.853 19.5037 207.848C-6.50122 181.843 -6.50122 139.681 19.5037 113.676L113.676 19.5037Z" fill="#43AFB3"/>
<path d="M513.12 79.5C528.48 79.5 539.92 83.1 547.44 90.3C554.96 97.5 558.72 108.14 558.72 122.22C558.72 129.74 556.88 136.38 553.2 142.14C549.52 147.74 544.08 152.14 536.88 155.34C529.68 158.38 520.8 159.9 510.24 159.9L511.2 149.1C516.16 149.1 521.84 149.82 528.24 151.26C534.64 152.54 540.8 154.94 546.72 158.46C552.8 161.82 557.76 166.62 561.6 172.86C565.6 178.94 567.6 186.78 567.6 196.38C567.6 206.94 565.84 215.58 562.32 222.3C558.96 229.02 554.48 234.22 548.88 237.9C543.28 241.58 537.28 244.14 530.88 245.58C524.48 246.86 518.32 247.5 512.4 247.5H452.64C448.48 247.5 444.96 246.14 442.08 243.42C439.36 240.54 438 237.02 438 232.86V94.14C438 89.98 439.36 86.54 442.08 83.82C444.96 80.94 448.48 79.5 452.64 79.5H513.12ZM508.8 107.82H466.08L469.2 103.98V147.42L466.32 145.26H509.52C514.16 145.26 518.32 143.74 522 140.7C525.68 137.66 527.52 133.26 527.52 127.5C527.52 120.62 525.76 115.66 522.24 112.62C518.88 109.42 514.4 107.82 508.8 107.82ZM510.72 173.58H467.04L469.2 171.66V222.3L466.8 219.9H512.4C519.76 219.9 525.6 217.98 529.92 214.14C534.24 210.14 536.4 204.22 536.4 196.38C536.4 189.18 534.96 183.98 532.08 180.78C529.2 177.58 525.76 175.58 521.76 174.78C517.76 173.98 514.08 173.58 510.72 173.58ZM607.266 247.5C603.106 247.5 599.666 246.14 596.946 243.42C594.226 240.54 592.866 237.02 592.866 232.86V133.74C592.866 129.58 594.226 126.14 596.946 123.42C599.666 120.54 603.106 119.1 607.266 119.1C611.426 119.1 614.866 120.54 617.586 123.42C620.306 126.14 621.666 129.58 621.666 133.74V156.3L619.986 140.22C621.746 136.38 623.986 133.02 626.706 130.14C629.586 127.1 632.786 124.62 636.306 122.7C639.826 120.62 643.586 119.1 647.586 118.14C651.586 117.18 655.586 116.7 659.586 116.7C664.386 116.7 668.386 118.06 671.586 120.78C674.946 123.5 676.626 126.7 676.626 130.38C676.626 135.66 675.266 139.5 672.546 141.9C669.826 144.14 666.866 145.26 663.666 145.26C660.626 145.26 657.826 144.7 655.266 143.58C652.866 142.46 650.066 141.9 646.866 141.9C643.986 141.9 641.026 142.62 637.986 144.06C635.106 145.34 632.386 147.42 629.826 150.3C627.426 153.18 625.426 156.78 623.826 161.1C622.386 165.26 621.666 170.22 621.666 175.98V232.86C621.666 237.02 620.306 240.54 617.586 243.42C614.866 246.14 611.426 247.5 607.266 247.5ZM816.098 183.42C816.098 196.54 813.138 208.14 807.218 218.22C801.458 228.14 793.618 235.9 783.698 241.5C773.938 247.1 762.978 249.9 750.818 249.9C738.658 249.9 727.618 247.1 717.698 241.5C707.938 235.9 700.098 228.14 694.178 218.22C688.418 208.14 685.538 196.54 685.538 183.42C685.538 170.3 688.418 158.78 694.178 148.86C700.098 138.78 707.938 130.94 717.698 125.34C727.618 119.58 738.658 116.7 750.818 116.7C762.978 116.7 773.938 119.58 783.698 125.34C793.618 130.94 801.458 138.78 807.218 148.86C813.138 158.78 816.098 170.3 816.098 183.42ZM787.298 183.42C787.298 175.26 785.618 168.22 782.258 162.3C779.058 156.22 774.658 151.5 769.058 148.14C763.618 144.78 757.538 143.1 750.818 143.1C744.098 143.1 737.938 144.78 732.338 148.14C726.898 151.5 722.498 156.22 719.138 162.3C715.938 168.22 714.338 175.26 714.338 183.42C714.338 191.42 715.938 198.46 719.138 204.54C722.498 210.46 726.898 215.1 732.338 218.46C737.938 221.82 744.098 223.5 750.818 223.5C757.538 223.5 763.618 221.82 769.058 218.46C774.658 215.1 779.058 210.46 782.258 204.54C785.618 198.46 787.298 191.42 787.298 183.42ZM961.303 87.66C965.463 89.74 967.863 93.02 968.503 97.5C969.303 101.98 968.183 106.06 965.143 109.74C963.063 112.62 960.343 114.22 956.983 114.54C953.783 114.86 950.503 114.22 947.143 112.62C943.303 110.86 939.223 109.5 934.903 108.54C930.743 107.58 926.343 107.1 921.703 107.1C913.063 107.1 905.303 108.46 898.423 111.18C891.703 113.9 885.943 117.82 881.143 122.94C876.343 127.9 872.663 133.82 870.103 140.7C867.703 147.58 866.503 155.18 866.503 163.5C866.503 173.26 867.863 181.74 870.583 188.94C873.463 196.14 877.383 202.14 882.343 206.94C887.303 211.74 893.143 215.34 899.863 217.74C906.583 219.98 913.863 221.1 921.703 221.1C926.023 221.1 930.343 220.7 934.663 219.9C938.983 219.1 943.143 217.66 947.143 215.58C950.503 213.98 953.783 213.42 956.983 213.9C960.343 214.38 963.143 216.06 965.383 218.94C968.583 222.94 969.703 227.1 968.743 231.42C967.943 235.58 965.543 238.62 961.543 240.54C957.383 242.62 953.063 244.38 948.583 245.82C944.263 247.1 939.863 248.06 935.383 248.7C930.903 249.5 926.343 249.9 921.703 249.9C910.183 249.9 899.223 248.06 888.823 244.38C878.583 240.7 869.383 235.26 861.223 228.06C853.223 220.86 846.903 211.9 842.263 201.18C837.623 190.3 835.303 177.74 835.303 163.5C835.303 151.18 837.383 139.82 841.543 129.42C845.863 119.02 851.863 110.06 859.543 102.54C867.383 94.86 876.583 88.94 887.143 84.78C897.703 80.46 909.223 78.3 921.703 78.3C928.743 78.3 935.623 79.1 942.343 80.7C949.063 82.3 955.383 84.62 961.303 87.66ZM1116.33 183.42C1116.33 196.54 1113.37 208.14 1107.45 218.22C1101.69 228.14 1093.85 235.9 1083.93 241.5C1074.17 247.1 1063.21 249.9 1051.05 249.9C1038.89 249.9 1027.85 247.1 1017.93 241.5C1008.17 235.9 1000.33 228.14 994.412 218.22C988.652 208.14 985.772 196.54 985.772 183.42C985.772 170.3 988.652 158.78 994.412 148.86C1000.33 138.78 1008.17 130.94 1017.93 125.34C1027.85 119.58 1038.89 116.7 1051.05 116.7C1063.21 116.7 1074.17 119.58 1083.93 125.34C1093.85 130.94 1101.69 138.78 1107.45 148.86C1113.37 158.78 1116.33 170.3 1116.33 183.42ZM1087.53 183.42C1087.53 175.26 1085.85 168.22 1082.49 162.3C1079.29 156.22 1074.89 151.5 1069.29 148.14C1063.85 144.78 1057.77 143.1 1051.05 143.1C1044.33 143.1 1038.17 144.78 1032.57 148.14C1027.13 151.5 1022.73 156.22 1019.37 162.3C1016.17 168.22 1014.57 175.26 1014.57 183.42C1014.57 191.42 1016.17 198.46 1019.37 204.54C1022.73 210.46 1027.13 215.1 1032.57 218.46C1038.17 221.82 1044.33 223.5 1051.05 223.5C1057.77 223.5 1063.85 221.82 1069.29 218.46C1074.89 215.1 1079.29 210.46 1082.49 204.54C1085.85 198.46 1087.53 191.42 1087.53 183.42ZM1197.94 249.9C1186.74 249.9 1176.66 248.54 1167.7 245.82C1158.74 242.94 1150.18 237.98 1142.02 230.94C1139.94 229.18 1138.34 227.18 1137.22 224.94C1136.1 222.7 1135.54 220.46 1135.54 218.22C1135.54 214.54 1136.82 211.34 1139.38 208.62C1142.1 205.74 1145.46 204.3 1149.46 204.3C1152.5 204.3 1155.22 205.26 1157.62 207.18C1163.7 212.14 1169.7 215.9 1175.62 218.46C1181.7 221.02 1189.14 222.3 1197.94 222.3C1203.86 222.3 1209.3 221.42 1214.26 219.66C1219.22 217.74 1223.22 215.26 1226.26 212.22C1229.3 209.02 1230.82 205.42 1230.82 201.42C1230.82 196.62 1229.38 192.54 1226.5 189.18C1223.62 185.82 1219.22 183.02 1213.3 180.78C1207.38 178.38 1199.86 176.54 1190.74 175.26C1182.1 173.98 1174.5 172.06 1167.94 169.5C1161.38 166.78 1155.86 163.42 1151.38 159.42C1147.06 155.26 1143.78 150.46 1141.54 145.02C1139.3 139.42 1138.18 133.18 1138.18 126.3C1138.18 115.9 1140.82 107.02 1146.1 99.66C1151.54 92.3 1158.82 86.7 1167.94 82.86C1177.06 79.02 1187.14 77.1 1198.18 77.1C1208.58 77.1 1218.18 78.7 1226.98 81.9C1235.94 84.94 1243.22 88.86 1248.82 93.66C1253.46 97.34 1255.78 101.58 1255.78 106.38C1255.78 109.9 1254.42 113.1 1251.7 115.98C1248.98 118.86 1245.78 120.3 1242.1 120.3C1239.7 120.3 1237.54 119.58 1235.62 118.14C1233.06 115.9 1229.62 113.82 1225.3 111.9C1220.98 109.82 1216.42 108.14 1211.62 106.86C1206.82 105.42 1202.34 104.7 1198.18 104.7C1191.3 104.7 1185.46 105.58 1180.66 107.34C1176.02 109.1 1172.5 111.5 1170.1 114.54C1167.7 117.58 1166.5 121.1 1166.5 125.1C1166.5 129.9 1167.86 133.9 1170.58 137.1C1173.46 140.14 1177.54 142.62 1182.82 144.54C1188.1 146.3 1194.42 147.9 1201.78 149.34C1211.38 151.1 1219.78 153.18 1226.98 155.58C1234.34 157.98 1240.42 161.1 1245.22 164.94C1250.02 168.62 1253.62 173.34 1256.02 179.1C1258.42 184.7 1259.62 191.58 1259.62 199.74C1259.62 210.14 1256.74 219.1 1250.98 226.62C1245.22 234.14 1237.62 239.9 1228.18 243.9C1218.9 247.9 1208.82 249.9 1197.94 249.9Z" fill="#43AFB3"/>
<path d="M443.28 335.5C446.96 335.5 449.74 336.4 451.62 338.2C453.54 340 454.5 342.62 454.5 346.06C454.5 347.86 454.06 349.5 453.18 350.98C452.34 352.42 451.08 353.56 449.4 354.4C447.76 355.24 445.7 355.68 443.22 355.72L443.34 353.5C444.66 353.5 446.08 353.68 447.6 354.04C449.16 354.4 450.62 355.02 451.98 355.9C453.34 356.78 454.46 357.98 455.34 359.5C456.22 360.98 456.66 362.84 456.66 365.08C456.66 367.52 456.26 369.56 455.46 371.2C454.66 372.8 453.6 374.06 452.28 374.98C450.96 375.9 449.5 376.56 447.9 376.96C446.34 377.32 444.8 377.5 443.28 377.5H427.92C427.08 377.5 426.36 377.22 425.76 376.66C425.16 376.06 424.86 375.32 424.86 374.44V338.56C424.86 337.68 425.16 336.96 425.76 336.4C426.36 335.8 427.08 335.5 427.92 335.5H443.28ZM442.44 341.38H430.62L431.34 340.42V353.32L430.68 352.66H442.56C444 352.62 445.26 352.14 446.34 351.22C447.46 350.26 448.02 348.86 448.02 347.02C448.02 345.14 447.52 343.74 446.52 342.82C445.52 341.86 444.16 341.38 442.44 341.38ZM442.86 358.54H430.92L431.34 358.12V372.28L430.86 371.74H443.22C445.3 371.74 446.98 371.2 448.26 370.12C449.54 369 450.18 367.32 450.18 365.08C450.18 363.2 449.8 361.8 449.04 360.88C448.28 359.96 447.34 359.34 446.22 359.02C445.1 358.7 443.98 358.54 442.86 358.54ZM466.458 377.5C465.578 377.5 464.858 377.22 464.298 376.66C463.738 376.06 463.458 375.32 463.458 374.44V349C463.458 348.12 463.738 347.4 464.298 346.84C464.858 346.24 465.578 345.94 466.458 345.94C467.298 345.94 467.998 346.24 468.558 346.84C469.158 347.4 469.458 348.12 469.458 349V355.72L468.858 353.14C469.178 352.02 469.658 350.98 470.298 350.02C470.978 349.06 471.778 348.22 472.698 347.5C473.618 346.78 474.638 346.22 475.758 345.82C476.918 345.42 478.118 345.22 479.358 345.22C480.398 345.22 481.298 345.5 482.058 346.06C482.818 346.62 483.198 347.32 483.198 348.16C483.198 349.24 482.918 350.04 482.358 350.56C481.798 351.04 481.178 351.28 480.498 351.28C479.898 351.28 479.318 351.16 478.758 350.92C478.198 350.64 477.538 350.5 476.778 350.5C475.938 350.5 475.078 350.72 474.198 351.16C473.318 351.6 472.518 352.26 471.798 353.14C471.078 353.98 470.498 354.98 470.058 356.14C469.658 357.3 469.458 358.6 469.458 360.04V374.44C469.458 375.32 469.158 376.06 468.558 376.66C467.998 377.22 467.298 377.5 466.458 377.5ZM501.888 378.1C498.568 378.1 495.688 377.42 493.248 376.06C490.808 374.66 488.908 372.76 487.548 370.36C486.228 367.92 485.568 365.14 485.568 362.02C485.568 358.5 486.268 355.5 487.668 353.02C489.108 350.5 490.968 348.58 493.248 347.26C495.528 345.9 497.948 345.22 500.508 345.22C502.468 345.22 504.328 345.62 506.088 346.42C507.848 347.18 509.408 348.26 510.768 349.66C512.168 351.02 513.268 352.64 514.068 354.52C514.868 356.36 515.288 358.38 515.328 360.58C515.288 361.38 514.968 362.04 514.368 362.56C513.768 363.08 513.068 363.34 512.268 363.34H488.928L487.488 358.24H510.048L508.908 359.32V357.82C508.828 356.42 508.368 355.2 507.528 354.16C506.688 353.08 505.648 352.26 504.408 351.7C503.168 351.1 501.868 350.8 500.508 350.8C499.308 350.8 498.148 351 497.028 351.4C495.948 351.76 494.968 352.36 494.088 353.2C493.248 354.04 492.568 355.16 492.048 356.56C491.568 357.92 491.328 359.62 491.328 361.66C491.328 363.86 491.788 365.78 492.708 367.42C493.628 369.06 494.868 370.34 496.428 371.26C497.988 372.14 499.708 372.58 501.588 372.58C503.068 372.58 504.288 372.44 505.248 372.16C506.208 371.84 507.008 371.46 507.648 371.02C508.288 370.58 508.848 370.16 509.328 369.76C509.928 369.4 510.528 369.22 511.128 369.22C511.848 369.22 512.448 369.48 512.928 370C513.408 370.48 513.648 371.06 513.648 371.74C513.648 372.62 513.208 373.42 512.328 374.14C511.248 375.18 509.748 376.1 507.828 376.9C505.948 377.7 503.968 378.1 501.888 378.1ZM548.205 345.46C549.085 345.46 549.805 345.76 550.365 346.36C550.925 346.92 551.205 347.64 551.205 348.52V374.44C551.205 375.32 550.925 376.06 550.365 376.66C549.805 377.22 549.085 377.5 548.205 377.5C547.365 377.5 546.645 377.22 546.045 376.66C545.485 376.06 545.205 375.32 545.205 374.44V370.12L546.465 370.3C546.465 371.02 546.165 371.82 545.565 372.7C545.005 373.58 544.225 374.44 543.225 375.28C542.225 376.08 541.045 376.76 539.685 377.32C538.325 377.84 536.865 378.1 535.305 378.1C532.545 378.1 530.065 377.4 527.865 376C525.665 374.56 523.925 372.6 522.645 370.12C521.365 367.64 520.725 364.82 520.725 361.66C520.725 358.42 521.365 355.58 522.645 353.14C523.925 350.66 525.645 348.72 527.805 347.32C530.005 345.92 532.445 345.22 535.125 345.22C536.845 345.22 538.425 345.5 539.865 346.06C541.345 346.62 542.625 347.34 543.705 348.22C544.785 349.1 545.605 350.04 546.165 351.04C546.765 352 547.065 352.92 547.065 353.8L545.205 353.98V348.52C545.205 347.68 545.485 346.96 546.045 346.36C546.645 345.76 547.365 345.46 548.205 345.46ZM535.965 372.58C537.845 372.58 539.505 372.1 540.945 371.14C542.385 370.18 543.505 368.88 544.305 367.24C545.105 365.56 545.505 363.7 545.505 361.66C545.505 359.58 545.105 357.72 544.305 356.08C543.505 354.44 542.385 353.14 540.945 352.18C539.505 351.22 537.845 350.74 535.965 350.74C534.125 350.74 532.485 351.22 531.045 352.18C529.645 353.14 528.525 354.44 527.685 356.08C526.885 357.72 526.485 359.58 526.485 361.66C526.485 363.7 526.885 365.56 527.685 367.24C528.525 368.88 529.645 370.18 531.045 371.14C532.485 372.1 534.125 372.58 535.965 372.58ZM563.09 377.5C562.25 377.5 561.53 377.22 560.93 376.66C560.37 376.06 560.09 375.32 560.09 374.44V336.16C560.09 335.28 560.37 334.56 560.93 334C561.53 333.4 562.25 333.1 563.09 333.1C563.97 333.1 564.69 333.4 565.25 334C565.81 334.56 566.09 335.28 566.09 336.16V374.44C566.09 375.32 565.81 376.06 565.25 376.66C564.69 377.22 563.97 377.5 563.09 377.5ZM582.65 345.82C583.41 345.82 584.07 346.14 584.63 346.78C585.19 347.42 585.47 348.06 585.47 348.7C585.47 349.5 585.09 350.24 584.33 350.92L565.55 367.72L565.31 360.82L580.43 346.78C581.07 346.14 581.81 345.82 582.65 345.82ZM583.37 377.44C582.53 377.44 581.81 377.1 581.21 376.42L569.21 363.76L573.77 359.56L585.47 372.22C586.11 372.9 586.43 373.66 586.43 374.5C586.43 375.38 586.07 376.1 585.35 376.66C584.67 377.18 584.01 377.44 583.37 377.44ZM640.246 337.9C641.126 338.34 641.626 339.02 641.746 339.94C641.906 340.86 641.686 341.7 641.086 342.46C640.646 343.06 640.066 343.4 639.346 343.48C638.666 343.56 637.986 343.42 637.306 343.06C636.146 342.46 634.926 341.98 633.646 341.62C632.366 341.26 631.006 341.08 629.566 341.08C627.286 341.08 625.226 341.46 623.386 342.22C621.586 342.94 620.026 344 618.706 345.4C617.386 346.76 616.366 348.38 615.646 350.26C614.966 352.14 614.626 354.22 614.626 356.5C614.626 359.02 615.006 361.26 615.766 363.22C616.526 365.14 617.566 366.78 618.886 368.14C620.246 369.46 621.826 370.46 623.626 371.14C625.466 371.78 627.446 372.1 629.566 372.1C630.926 372.1 632.246 371.94 633.526 371.62C634.846 371.3 636.086 370.82 637.246 370.18C637.966 369.82 638.666 369.7 639.346 369.82C640.066 369.9 640.646 370.24 641.086 370.84C641.766 371.68 642.006 372.54 641.806 373.42C641.646 374.26 641.146 374.9 640.306 375.34C639.306 375.9 638.206 376.38 637.006 376.78C635.806 377.18 634.586 377.5 633.346 377.74C632.106 377.98 630.846 378.1 629.566 378.1C626.686 378.1 623.966 377.62 621.406 376.66C618.846 375.7 616.566 374.3 614.566 372.46C612.566 370.62 610.986 368.36 609.826 365.68C608.706 363 608.146 359.94 608.146 356.5C608.146 353.42 608.666 350.58 609.706 347.98C610.786 345.34 612.286 343.08 614.206 341.2C616.166 339.28 618.446 337.8 621.046 336.76C623.646 335.68 626.486 335.14 629.566 335.14C631.486 335.14 633.346 335.38 635.146 335.86C636.986 336.34 638.686 337.02 640.246 337.9ZM678.151 361.72C678.151 364.92 677.451 367.76 676.051 370.24C674.651 372.68 672.751 374.6 670.351 376C667.951 377.4 665.251 378.1 662.251 378.1C659.251 378.1 656.551 377.4 654.151 376C651.751 374.6 649.831 372.68 648.391 370.24C646.991 367.76 646.291 364.92 646.291 361.72C646.291 358.48 646.991 355.64 648.391 353.2C649.831 350.72 651.751 348.78 654.151 347.38C656.551 345.94 659.251 345.22 662.251 345.22C665.251 345.22 667.951 345.94 670.351 347.38C672.751 348.78 674.651 350.72 676.051 353.2C677.451 355.64 678.151 358.48 678.151 361.72ZM672.151 361.72C672.151 359.52 671.711 357.62 670.831 356.02C669.951 354.38 668.751 353.1 667.231 352.18C665.751 351.22 664.091 350.74 662.251 350.74C660.411 350.74 658.731 351.22 657.211 352.18C655.691 353.1 654.491 354.38 653.611 356.02C652.731 357.62 652.291 359.52 652.291 361.72C652.291 363.84 652.731 365.72 653.611 367.36C654.491 369 655.691 370.28 657.211 371.2C658.731 372.12 660.411 372.58 662.251 372.58C664.091 372.58 665.751 372.12 667.231 371.2C668.751 370.28 669.951 369 670.831 367.36C671.711 365.72 672.151 363.84 672.151 361.72ZM701.202 345.22C704.042 345.22 706.242 345.82 707.802 347.02C709.362 348.18 710.442 349.76 711.042 351.76C711.682 353.72 712.002 355.92 712.002 358.36V374.44C712.002 375.32 711.702 376.06 711.102 376.66C710.542 377.22 709.842 377.5 709.002 377.5C708.122 377.5 707.402 377.22 706.842 376.66C706.282 376.06 706.002 375.32 706.002 374.44V358.42C706.002 356.98 705.802 355.7 705.402 354.58C705.002 353.42 704.302 352.5 703.302 351.82C702.342 351.1 700.982 350.74 699.222 350.74C697.582 350.74 696.142 351.1 694.902 351.82C693.662 352.5 692.682 353.42 691.962 354.58C691.282 355.7 690.942 356.98 690.942 358.42V374.44C690.942 375.32 690.642 376.06 690.042 376.66C689.482 377.22 688.782 377.5 687.942 377.5C687.062 377.5 686.342 377.22 685.782 376.66C685.222 376.06 684.942 375.32 684.942 374.44V349C684.942 348.12 685.222 347.4 685.782 346.84C686.342 346.24 687.062 345.94 687.942 345.94C688.782 345.94 689.482 346.24 690.042 346.84C690.642 347.4 690.942 348.12 690.942 349V352.36L689.862 352.96C690.142 352.08 690.622 351.2 691.302 350.32C692.022 349.4 692.882 348.56 693.882 347.8C694.882 347 696.002 346.38 697.242 345.94C698.482 345.46 699.802 345.22 701.202 345.22ZM720.76 345.64C721.36 345.64 721.92 345.8 722.44 346.12C723 346.44 723.4 346.92 723.64 347.56L733.06 369.34L731.92 369.88L741.46 347.62C742.02 346.3 742.92 345.66 744.16 345.7C744.96 345.7 745.62 345.96 746.14 346.48C746.7 346.96 746.98 347.6 746.98 348.4C746.98 348.64 746.94 348.9 746.86 349.18C746.78 349.42 746.68 349.66 746.56 349.9L735.16 375.58C734.64 376.78 733.78 377.42 732.58 377.5C731.98 377.58 731.38 377.46 730.78 377.14C730.22 376.78 729.78 376.26 729.46 375.58L718.12 349.9C718.04 349.74 717.96 349.54 717.88 349.3C717.8 349.02 717.76 348.7 717.76 348.34C717.76 347.74 718.02 347.14 718.54 346.54C719.1 345.94 719.84 345.64 720.76 345.64ZM767.494 378.1C764.174 378.1 761.294 377.42 758.854 376.06C756.414 374.66 754.514 372.76 753.154 370.36C751.834 367.92 751.174 365.14 751.174 362.02C751.174 358.5 751.874 355.5 753.274 353.02C754.714 350.5 756.574 348.58 758.854 347.26C761.134 345.9 763.554 345.22 766.114 345.22C768.074 345.22 769.934 345.62 771.694 346.42C773.454 347.18 775.014 348.26 776.374 349.66C777.774 351.02 778.874 352.64 779.674 354.52C780.474 356.36 780.894 358.38 780.934 360.58C780.894 361.38 780.574 362.04 779.974 362.56C779.374 363.08 778.674 363.34 777.874 363.34H754.534L753.094 358.24H775.654L774.514 359.32V357.82C774.434 356.42 773.974 355.2 773.134 354.16C772.294 353.08 771.254 352.26 770.014 351.7C768.774 351.1 767.474 350.8 766.114 350.8C764.914 350.8 763.754 351 762.634 351.4C761.554 351.76 760.574 352.36 759.694 353.2C758.854 354.04 758.174 355.16 757.654 356.56C757.174 357.92 756.934 359.62 756.934 361.66C756.934 363.86 757.394 365.78 758.314 367.42C759.234 369.06 760.474 370.34 762.034 371.26C763.594 372.14 765.314 372.58 767.194 372.58C768.674 372.58 769.894 372.44 770.854 372.16C771.814 371.84 772.614 371.46 773.254 371.02C773.894 370.58 774.454 370.16 774.934 369.76C775.534 369.4 776.134 369.22 776.734 369.22C777.454 369.22 778.054 369.48 778.534 370C779.014 370.48 779.254 371.06 779.254 371.74C779.254 372.62 778.814 373.42 777.934 374.14C776.854 375.18 775.354 376.1 773.434 376.9C771.554 377.7 769.574 378.1 767.494 378.1ZM803.976 345.22C806.816 345.22 809.016 345.82 810.576 347.02C812.136 348.18 813.216 349.76 813.816 351.76C814.456 353.72 814.776 355.92 814.776 358.36V374.44C814.776 375.32 814.476 376.06 813.876 376.66C813.316 377.22 812.616 377.5 811.776 377.5C810.896 377.5 810.176 377.22 809.616 376.66C809.056 376.06 808.776 375.32 808.776 374.44V358.42C808.776 356.98 808.576 355.7 808.176 354.58C807.776 353.42 807.076 352.5 806.076 351.82C805.116 351.1 803.756 350.74 801.996 350.74C800.356 350.74 798.916 351.1 797.676 351.82C796.436 352.5 795.456 353.42 794.736 354.58C794.056 355.7 793.716 356.98 793.716 358.42V374.44C793.716 375.32 793.416 376.06 792.816 376.66C792.256 377.22 791.556 377.5 790.716 377.5C789.836 377.5 789.116 377.22 788.556 376.66C787.996 376.06 787.716 375.32 787.716 374.44V349C787.716 348.12 787.996 347.4 788.556 346.84C789.116 346.24 789.836 345.94 790.716 345.94C791.556 345.94 792.256 346.24 792.816 346.84C793.416 347.4 793.716 348.12 793.716 349V352.36L792.636 352.96C792.916 352.08 793.396 351.2 794.076 350.32C794.796 349.4 795.656 348.56 796.656 347.8C797.656 347 798.776 346.38 800.016 345.94C801.256 345.46 802.576 345.22 803.976 345.22ZM822.686 346.3H836.786C837.586 346.3 838.246 346.58 838.766 347.14C839.326 347.66 839.606 348.32 839.606 349.12C839.606 349.88 839.326 350.52 838.766 351.04C838.246 351.56 837.586 351.82 836.786 351.82H822.686C821.886 351.82 821.206 351.56 820.646 351.04C820.126 350.48 819.866 349.82 819.866 349.06C819.866 348.26 820.126 347.6 820.646 347.08C821.206 346.56 821.886 346.3 822.686 346.3ZM828.986 338.5C829.866 338.5 830.586 338.8 831.146 339.4C831.706 339.96 831.986 340.68 831.986 341.56V369.4C831.986 370.12 832.106 370.7 832.346 371.14C832.586 371.58 832.906 371.88 833.306 372.04C833.746 372.2 834.186 372.28 834.626 372.28C835.066 372.28 835.446 372.2 835.766 372.04C836.126 371.88 836.546 371.8 837.026 371.8C837.506 371.8 837.946 372.02 838.346 372.46C838.746 372.9 838.946 373.5 838.946 374.26C838.946 375.22 838.426 376 837.386 376.6C836.346 377.2 835.226 377.5 834.026 377.5C833.346 377.5 832.546 377.44 831.626 377.32C830.706 377.2 829.806 376.9 828.926 376.42C828.086 375.94 827.386 375.18 826.826 374.14C826.266 373.06 825.986 371.56 825.986 369.64V341.56C825.986 340.68 826.266 339.96 826.826 339.4C827.426 338.8 828.146 338.5 828.986 338.5ZM851.891 374.44C851.891 375.32 851.611 376.06 851.051 376.66C850.491 377.22 849.771 377.5 848.891 377.5C848.051 377.5 847.331 377.22 846.731 376.66C846.171 376.06 845.891 375.32 845.891 374.44V348.76C845.891 347.88 846.171 347.16 846.731 346.6C847.331 346 848.051 345.7 848.891 345.7C849.771 345.7 850.491 346 851.051 346.6C851.611 347.16 851.891 347.88 851.891 348.76V374.44ZM848.831 341.74C847.671 341.74 846.831 341.54 846.311 341.14C845.791 340.7 845.531 339.98 845.531 338.98V338.02C845.531 337.02 845.811 336.32 846.371 335.92C846.931 335.52 847.771 335.32 848.891 335.32C850.091 335.32 850.951 335.54 851.471 335.98C851.991 336.38 852.251 337.06 852.251 338.02V338.98C852.251 340.02 851.971 340.74 851.411 341.14C850.891 341.54 850.031 341.74 848.831 341.74ZM890.202 361.72C890.202 364.92 889.502 367.76 888.102 370.24C886.702 372.68 884.802 374.6 882.402 376C880.002 377.4 877.302 378.1 874.302 378.1C871.302 378.1 868.602 377.4 866.202 376C863.802 374.6 861.882 372.68 860.442 370.24C859.042 367.76 858.342 364.92 858.342 361.72C858.342 358.48 859.042 355.64 860.442 353.2C861.882 350.72 863.802 348.78 866.202 347.38C868.602 345.94 871.302 345.22 874.302 345.22C877.302 345.22 880.002 345.94 882.402 347.38C884.802 348.78 886.702 350.72 888.102 353.2C889.502 355.64 890.202 358.48 890.202 361.72ZM884.202 361.72C884.202 359.52 883.762 357.62 882.882 356.02C882.002 354.38 880.802 353.1 879.282 352.18C877.802 351.22 876.142 350.74 874.302 350.74C872.462 350.74 870.782 351.22 869.262 352.18C867.742 353.1 866.542 354.38 865.662 356.02C864.782 357.62 864.342 359.52 864.342 361.72C864.342 363.84 864.782 365.72 865.662 367.36C866.542 369 867.742 370.28 869.262 371.2C870.782 372.12 872.462 372.58 874.302 372.58C876.142 372.58 877.802 372.12 879.282 371.2C880.802 370.28 882.002 369 882.882 367.36C883.762 365.72 884.202 363.84 884.202 361.72ZM913.253 345.22C916.093 345.22 918.293 345.82 919.853 347.02C921.413 348.18 922.493 349.76 923.093 351.76C923.733 353.72 924.053 355.92 924.053 358.36V374.44C924.053 375.32 923.753 376.06 923.153 376.66C922.593 377.22 921.893 377.5 921.053 377.5C920.173 377.5 919.453 377.22 918.893 376.66C918.333 376.06 918.053 375.32 918.053 374.44V358.42C918.053 356.98 917.853 355.7 917.453 354.58C917.053 353.42 916.353 352.5 915.353 351.82C914.393 351.1 913.033 350.74 911.273 350.74C909.633 350.74 908.193 351.1 906.953 351.82C905.713 352.5 904.733 353.42 904.013 354.58C903.333 355.7 902.993 356.98 902.993 358.42V374.44C902.993 375.32 902.693 376.06 902.093 376.66C901.533 377.22 900.833 377.5 899.993 377.5C899.113 377.5 898.393 377.22 897.833 376.66C897.273 376.06 896.993 375.32 896.993 374.44V349C896.993 348.12 897.273 347.4 897.833 346.84C898.393 346.24 899.113 345.94 899.993 345.94C900.833 345.94 901.533 346.24 902.093 346.84C902.693 347.4 902.993 348.12 902.993 349V352.36L901.913 352.96C902.193 352.08 902.673 351.2 903.353 350.32C904.073 349.4 904.933 348.56 905.933 347.8C906.933 347 908.053 346.38 909.293 345.94C910.533 345.46 911.853 345.22 913.253 345.22ZM958.244 345.46C959.124 345.46 959.844 345.76 960.404 346.36C960.964 346.92 961.244 347.64 961.244 348.52V374.44C961.244 375.32 960.964 376.06 960.404 376.66C959.844 377.22 959.124 377.5 958.244 377.5C957.404 377.5 956.684 377.22 956.084 376.66C955.524 376.06 955.244 375.32 955.244 374.44V370.12L956.504 370.3C956.504 371.02 956.204 371.82 955.604 372.7C955.044 373.58 954.264 374.44 953.264 375.28C952.264 376.08 951.084 376.76 949.724 377.32C948.364 377.84 946.904 378.1 945.344 378.1C942.584 378.1 940.104 377.4 937.904 376C935.704 374.56 933.964 372.6 932.684 370.12C931.404 367.64 930.764 364.82 930.764 361.66C930.764 358.42 931.404 355.58 932.684 353.14C933.964 350.66 935.684 348.72 937.844 347.32C940.044 345.92 942.484 345.22 945.164 345.22C946.884 345.22 948.464 345.5 949.904 346.06C951.384 346.62 952.664 347.34 953.744 348.22C954.824 349.1 955.644 350.04 956.204 351.04C956.804 352 957.104 352.92 957.104 353.8L955.244 353.98V348.52C955.244 347.68 955.524 346.96 956.084 346.36C956.684 345.76 957.404 345.46 958.244 345.46ZM946.004 372.58C947.884 372.58 949.544 372.1 950.984 371.14C952.424 370.18 953.544 368.88 954.344 367.24C955.144 365.56 955.544 363.7 955.544 361.66C955.544 359.58 955.144 357.72 954.344 356.08C953.544 354.44 952.424 353.14 950.984 352.18C949.544 351.22 947.884 350.74 946.004 350.74C944.164 350.74 942.524 351.22 941.084 352.18C939.684 353.14 938.564 354.44 937.724 356.08C936.924 357.72 936.524 359.58 936.524 361.66C936.524 363.7 936.924 365.56 937.724 367.24C938.564 368.88 939.684 370.18 941.084 371.14C942.524 372.1 944.164 372.58 946.004 372.58ZM976.129 374.44C976.129 375.32 975.829 376.06 975.229 376.66C974.669 377.22 973.969 377.5 973.129 377.5C972.289 377.5 971.569 377.22 970.969 376.66C970.409 376.06 970.129 375.32 970.129 374.44V336.16C970.129 335.28 970.429 334.56 971.029 334C971.629 333.4 972.349 333.1 973.189 333.1C974.069 333.1 974.769 333.4 975.289 334C975.849 334.56 976.129 335.28 976.129 336.16V374.44ZM1015.32 378.1C1012.44 378.1 1009.88 377.7 1007.64 376.9C1005.4 376.1 1003.26 374.78 1001.22 372.94C1000.78 372.62 1000.44 372.24 1000.2 371.8C999.999 371.32 999.899 370.84 999.899 370.36C999.899 369.6 1000.18 368.92 1000.74 368.32C1001.3 367.72 1002 367.42 1002.84 367.42C1003.48 367.42 1004.08 367.64 1004.64 368.08C1006.16 369.48 1007.74 370.54 1009.38 371.26C1011.06 371.98 1013.02 372.34 1015.26 372.34C1016.86 372.34 1018.32 372.08 1019.64 371.56C1021 371.04 1022.08 370.34 1022.88 369.46C1023.68 368.58 1024.08 367.56 1024.08 366.4C1024.08 364.96 1023.66 363.78 1022.82 362.86C1022.02 361.9 1020.84 361.12 1019.28 360.52C1017.76 359.88 1015.92 359.34 1013.76 358.9C1011.76 358.54 1009.96 358.04 1008.36 357.4C1006.8 356.76 1005.46 355.96 1004.34 355C1003.22 354 1002.36 352.82 1001.76 351.46C1001.16 350.1 1000.86 348.52 1000.86 346.72C1000.86 344.28 1001.5 342.18 1002.78 340.42C1004.06 338.66 1005.8 337.3 1008 336.34C1010.2 335.38 1012.68 334.9 1015.44 334.9C1017.96 334.9 1020.32 335.3 1022.52 336.1C1024.72 336.86 1026.5 337.9 1027.86 339.22C1028.82 340.06 1029.3 340.96 1029.3 341.92C1029.3 342.64 1029 343.32 1028.4 343.96C1027.84 344.56 1027.18 344.86 1026.42 344.86C1025.86 344.86 1025.38 344.7 1024.98 344.38C1024.34 343.7 1023.48 343.1 1022.4 342.58C1021.32 342.02 1020.16 341.56 1018.92 341.2C1017.72 340.84 1016.56 340.66 1015.44 340.66C1013.64 340.66 1012.1 340.92 1010.82 341.44C1009.54 341.92 1008.56 342.6 1007.88 343.48C1007.2 344.32 1006.86 345.32 1006.86 346.48C1006.86 347.84 1007.24 348.96 1008 349.84C1008.8 350.72 1009.9 351.44 1011.3 352C1012.7 352.52 1014.3 353 1016.1 353.44C1018.3 353.92 1020.26 354.46 1021.98 355.06C1023.74 355.66 1025.22 356.44 1026.42 357.4C1027.62 358.32 1028.54 359.48 1029.18 360.88C1029.82 362.28 1030.14 364.02 1030.14 366.1C1030.14 368.5 1029.46 370.6 1028.1 372.4C1026.74 374.2 1024.94 375.6 1022.7 376.6C1020.5 377.6 1018.04 378.1 1015.32 378.1ZM1052.76 345.4C1055.56 345.4 1058.04 346.1 1060.2 347.5C1062.4 348.9 1064.14 350.82 1065.42 353.26C1066.7 355.66 1067.34 358.46 1067.34 361.66C1067.34 364.86 1066.7 367.7 1065.42 370.18C1064.14 372.62 1062.42 374.54 1060.26 375.94C1058.1 377.34 1055.66 378.04 1052.94 378.04C1051.42 378.04 1049.98 377.8 1048.62 377.32C1047.26 376.84 1046.06 376.22 1045.02 375.46C1043.98 374.66 1043.12 373.82 1042.44 372.94C1041.8 372.06 1041.4 371.24 1041.24 370.48L1042.86 369.7V386.44C1042.86 387.32 1042.56 388.04 1041.96 388.6C1041.4 389.2 1040.7 389.5 1039.86 389.5C1038.98 389.5 1038.26 389.2 1037.7 388.6C1037.14 388.04 1036.86 387.32 1036.86 386.44V348.88C1036.86 348.04 1037.14 347.32 1037.7 346.72C1038.26 346.12 1038.98 345.82 1039.86 345.82C1040.7 345.82 1041.4 346.12 1041.96 346.72C1042.56 347.32 1042.86 348.04 1042.86 348.88V353.02L1041.9 352.48C1042.02 351.72 1042.4 350.94 1043.04 350.14C1043.68 349.3 1044.48 348.52 1045.44 347.8C1046.44 347.08 1047.56 346.5 1048.8 346.06C1050.08 345.62 1051.4 345.4 1052.76 345.4ZM1052.1 350.92C1050.18 350.92 1048.5 351.4 1047.06 352.36C1045.66 353.28 1044.56 354.54 1043.76 356.14C1042.96 357.74 1042.56 359.58 1042.56 361.66C1042.56 363.7 1042.96 365.56 1043.76 367.24C1044.56 368.88 1045.66 370.18 1047.06 371.14C1048.5 372.06 1050.18 372.52 1052.1 372.52C1053.98 372.52 1055.62 372.06 1057.02 371.14C1058.42 370.18 1059.52 368.88 1060.32 367.24C1061.16 365.56 1061.58 363.7 1061.58 361.66C1061.58 359.62 1061.16 357.8 1060.32 356.2C1059.52 354.56 1058.42 353.28 1057.02 352.36C1055.62 351.4 1053.98 350.92 1052.1 350.92ZM1088.82 378.1C1085.5 378.1 1082.62 377.42 1080.18 376.06C1077.74 374.66 1075.84 372.76 1074.48 370.36C1073.16 367.92 1072.5 365.14 1072.5 362.02C1072.5 358.5 1073.2 355.5 1074.6 353.02C1076.04 350.5 1077.9 348.58 1080.18 347.26C1082.46 345.9 1084.88 345.22 1087.44 345.22C1089.4 345.22 1091.26 345.62 1093.02 346.42C1094.78 347.18 1096.34 348.26 1097.7 349.66C1099.1 351.02 1100.2 352.64 1101 354.52C1101.8 356.36 1102.22 358.38 1102.26 360.58C1102.22 361.38 1101.9 362.04 1101.3 362.56C1100.7 363.08 1100 363.34 1099.2 363.34H1075.86L1074.42 358.24H1096.98L1095.84 359.32V357.82C1095.76 356.42 1095.3 355.2 1094.46 354.16C1093.62 353.08 1092.58 352.26 1091.34 351.7C1090.1 351.1 1088.8 350.8 1087.44 350.8C1086.24 350.8 1085.08 351 1083.96 351.4C1082.88 351.76 1081.9 352.36 1081.02 353.2C1080.18 354.04 1079.5 355.16 1078.98 356.56C1078.5 357.92 1078.26 359.62 1078.26 361.66C1078.26 363.86 1078.72 365.78 1079.64 367.42C1080.56 369.06 1081.8 370.34 1083.36 371.26C1084.92 372.14 1086.64 372.58 1088.52 372.58C1090 372.58 1091.22 372.44 1092.18 372.16C1093.14 371.84 1093.94 371.46 1094.58 371.02C1095.22 370.58 1095.78 370.16 1096.26 369.76C1096.86 369.4 1097.46 369.22 1098.06 369.22C1098.78 369.22 1099.38 369.48 1099.86 370C1100.34 370.48 1100.58 371.06 1100.58 371.74C1100.58 372.62 1100.14 373.42 1099.26 374.14C1098.18 375.18 1096.68 376.1 1094.76 376.9C1092.88 377.7 1090.9 378.1 1088.82 378.1ZM1123.02 345.22C1125.18 345.22 1127.1 345.46 1128.78 345.94C1130.46 346.38 1131.76 347.02 1132.68 347.86C1133.64 348.66 1134.12 349.6 1134.12 350.68C1134.12 351.36 1133.92 352 1133.52 352.6C1133.12 353.16 1132.52 353.44 1131.72 353.44C1131.16 353.44 1130.68 353.34 1130.28 353.14C1129.92 352.94 1129.58 352.7 1129.26 352.42C1128.94 352.14 1128.54 351.86 1128.06 351.58C1127.62 351.34 1126.96 351.14 1126.08 350.98C1125.24 350.82 1124.48 350.74 1123.8 350.74C1121.68 350.74 1119.84 351.22 1118.28 352.18C1116.76 353.14 1115.56 354.44 1114.68 356.08C1113.84 357.72 1113.42 359.58 1113.42 361.66C1113.42 363.74 1113.84 365.6 1114.68 367.24C1115.56 368.88 1116.74 370.18 1118.22 371.14C1119.74 372.1 1121.5 372.58 1123.5 372.58C1124.7 372.58 1125.68 372.5 1126.44 372.34C1127.2 372.14 1127.86 371.9 1128.42 371.62C1129.02 371.26 1129.52 370.9 1129.92 370.54C1130.36 370.14 1130.96 369.94 1131.72 369.94C1132.6 369.94 1133.26 370.22 1133.7 370.78C1134.18 371.3 1134.42 371.96 1134.42 372.76C1134.42 373.64 1133.88 374.5 1132.8 375.34C1131.76 376.14 1130.36 376.8 1128.6 377.32C1126.84 377.84 1124.9 378.1 1122.78 378.1C1119.66 378.1 1116.94 377.38 1114.62 375.94C1112.34 374.5 1110.56 372.54 1109.28 370.06C1108.04 367.58 1107.42 364.78 1107.42 361.66C1107.42 358.5 1108.08 355.7 1109.4 353.26C1110.72 350.78 1112.56 348.82 1114.92 347.38C1117.28 345.94 1119.98 345.22 1123.02 345.22ZM1163.68 345.94C1164.52 345.94 1165.22 346.24 1165.78 346.84C1166.38 347.4 1166.68 348.12 1166.68 349V364.78C1166.68 368.94 1165.52 372.2 1163.2 374.56C1160.88 376.88 1157.6 378.04 1153.36 378.04C1149.16 378.04 1145.9 376.88 1143.58 374.56C1141.3 372.2 1140.16 368.94 1140.16 364.78V349C1140.16 348.12 1140.44 347.4 1141 346.84C1141.56 346.24 1142.28 345.94 1143.16 345.94C1144 345.94 1144.7 346.24 1145.26 346.84C1145.86 347.4 1146.16 348.12 1146.16 349V364.78C1146.16 367.38 1146.76 369.32 1147.96 370.6C1149.2 371.88 1151 372.52 1153.36 372.52C1155.76 372.52 1157.58 371.88 1158.82 370.6C1160.06 369.32 1160.68 367.38 1160.68 364.78V349C1160.68 348.12 1160.96 347.4 1161.52 346.84C1162.08 346.24 1162.8 345.94 1163.68 345.94ZM1181.5 374.44C1181.5 375.32 1181.2 376.06 1180.6 376.66C1180.04 377.22 1179.34 377.5 1178.5 377.5C1177.66 377.5 1176.94 377.22 1176.34 376.66C1175.78 376.06 1175.5 375.32 1175.5 374.44V336.16C1175.5 335.28 1175.8 334.56 1176.4 334C1177 333.4 1177.72 333.1 1178.56 333.1C1179.44 333.1 1180.14 333.4 1180.66 334C1181.22 334.56 1181.5 335.28 1181.5 336.16V374.44ZM1216.29 345.46C1217.17 345.46 1217.89 345.76 1218.45 346.36C1219.01 346.92 1219.29 347.64 1219.29 348.52V374.44C1219.29 375.32 1219.01 376.06 1218.45 376.66C1217.89 377.22 1217.17 377.5 1216.29 377.5C1215.45 377.5 1214.73 377.22 1214.13 376.66C1213.57 376.06 1213.29 375.32 1213.29 374.44V370.12L1214.55 370.3C1214.55 371.02 1214.25 371.82 1213.65 372.7C1213.09 373.58 1212.31 374.44 1211.31 375.28C1210.31 376.08 1209.13 376.76 1207.77 377.32C1206.41 377.84 1204.95 378.1 1203.39 378.1C1200.63 378.1 1198.15 377.4 1195.95 376C1193.75 374.56 1192.01 372.6 1190.73 370.12C1189.45 367.64 1188.81 364.82 1188.81 361.66C1188.81 358.42 1189.45 355.58 1190.73 353.14C1192.01 350.66 1193.73 348.72 1195.89 347.32C1198.09 345.92 1200.53 345.22 1203.21 345.22C1204.93 345.22 1206.51 345.5 1207.95 346.06C1209.43 346.62 1210.71 347.34 1211.79 348.22C1212.87 349.1 1213.69 350.04 1214.25 351.04C1214.85 352 1215.15 352.92 1215.15 353.8L1213.29 353.98V348.52C1213.29 347.68 1213.57 346.96 1214.13 346.36C1214.73 345.76 1215.45 345.46 1216.29 345.46ZM1204.05 372.58C1205.93 372.58 1207.59 372.1 1209.03 371.14C1210.47 370.18 1211.59 368.88 1212.39 367.24C1213.19 365.56 1213.59 363.7 1213.59 361.66C1213.59 359.58 1213.19 357.72 1212.39 356.08C1211.59 354.44 1210.47 353.14 1209.03 352.18C1207.59 351.22 1205.93 350.74 1204.05 350.74C1202.21 350.74 1200.57 351.22 1199.13 352.18C1197.73 353.14 1196.61 354.44 1195.77 356.08C1194.97 357.72 1194.57 359.58 1194.57 361.66C1194.57 363.7 1194.97 365.56 1195.77 367.24C1196.61 368.88 1197.73 370.18 1199.13 371.14C1200.57 372.1 1202.21 372.58 1204.05 372.58ZM1227.28 346.3H1241.38C1242.18 346.3 1242.84 346.58 1243.36 347.14C1243.92 347.66 1244.2 348.32 1244.2 349.12C1244.2 349.88 1243.92 350.52 1243.36 351.04C1242.84 351.56 1242.18 351.82 1241.38 351.82H1227.28C1226.48 351.82 1225.8 351.56 1225.24 351.04C1224.72 350.48 1224.46 349.82 1224.46 349.06C1224.46 348.26 1224.72 347.6 1225.24 347.08C1225.8 346.56 1226.48 346.3 1227.28 346.3ZM1233.58 338.5C1234.46 338.5 1235.18 338.8 1235.74 339.4C1236.3 339.96 1236.58 340.68 1236.58 341.56V369.4C1236.58 370.12 1236.7 370.7 1236.94 371.14C1237.18 371.58 1237.5 371.88 1237.9 372.04C1238.34 372.2 1238.78 372.28 1239.22 372.28C1239.66 372.28 1240.04 372.2 1240.36 372.04C1240.72 371.88 1241.14 371.8 1241.62 371.8C1242.1 371.8 1242.54 372.02 1242.94 372.46C1243.34 372.9 1243.54 373.5 1243.54 374.26C1243.54 375.22 1243.02 376 1241.98 376.6C1240.94 377.2 1239.82 377.5 1238.62 377.5C1237.94 377.5 1237.14 377.44 1236.22 377.32C1235.3 377.2 1234.4 376.9 1233.52 376.42C1232.68 375.94 1231.98 375.18 1231.42 374.14C1230.86 373.06 1230.58 371.56 1230.58 369.64V341.56C1230.58 340.68 1230.86 339.96 1231.42 339.4C1232.02 338.8 1232.74 338.5 1233.58 338.5ZM1256.48 374.44C1256.48 375.32 1256.2 376.06 1255.64 376.66C1255.08 377.22 1254.36 377.5 1253.48 377.5C1252.64 377.5 1251.92 377.22 1251.32 376.66C1250.76 376.06 1250.48 375.32 1250.48 374.44V348.76C1250.48 347.88 1250.76 347.16 1251.32 346.6C1251.92 346 1252.64 345.7 1253.48 345.7C1254.36 345.7 1255.08 346 1255.64 346.6C1256.2 347.16 1256.48 347.88 1256.48 348.76V374.44ZM1253.42 341.74C1252.26 341.74 1251.42 341.54 1250.9 341.14C1250.38 340.7 1250.12 339.98 1250.12 338.98V338.02C1250.12 337.02 1250.4 336.32 1250.96 335.92C1251.52 335.52 1252.36 335.32 1253.48 335.32C1254.68 335.32 1255.54 335.54 1256.06 335.98C1256.58 336.38 1256.84 337.06 1256.84 338.02V338.98C1256.84 340.02 1256.56 340.74 1256 341.14C1255.48 341.54 1254.62 341.74 1253.42 341.74ZM1294.79 361.72C1294.79 364.92 1294.09 367.76 1292.69 370.24C1291.29 372.68 1289.39 374.6 1286.99 376C1284.59 377.4 1281.89 378.1 1278.89 378.1C1275.89 378.1 1273.19 377.4 1270.79 376C1268.39 374.6 1266.47 372.68 1265.03 370.24C1263.63 367.76 1262.93 364.92 1262.93 361.72C1262.93 358.48 1263.63 355.64 1265.03 353.2C1266.47 350.72 1268.39 348.78 1270.79 347.38C1273.19 345.94 1275.89 345.22 1278.89 345.22C1281.89 345.22 1284.59 345.94 1286.99 347.38C1289.39 348.78 1291.29 350.72 1292.69 353.2C1294.09 355.64 1294.79 358.48 1294.79 361.72ZM1288.79 361.72C1288.79 359.52 1288.35 357.62 1287.47 356.02C1286.59 354.38 1285.39 353.1 1283.87 352.18C1282.39 351.22 1280.73 350.74 1278.89 350.74C1277.05 350.74 1275.37 351.22 1273.85 352.18C1272.33 353.1 1271.13 354.38 1270.25 356.02C1269.37 357.62 1268.93 359.52 1268.93 361.72C1268.93 363.84 1269.37 365.72 1270.25 367.36C1271.13 369 1272.33 370.28 1273.85 371.2C1275.37 372.12 1277.05 372.58 1278.89 372.58C1280.73 372.58 1282.39 372.12 1283.87 371.2C1285.39 370.28 1286.59 369 1287.47 367.36C1288.35 365.72 1288.79 363.84 1288.79 361.72ZM1317.84 345.22C1320.68 345.22 1322.88 345.82 1324.44 347.02C1326 348.18 1327.08 349.76 1327.68 351.76C1328.32 353.72 1328.64 355.92 1328.64 358.36V374.44C1328.64 375.32 1328.34 376.06 1327.74 376.66C1327.18 377.22 1326.48 377.5 1325.64 377.5C1324.76 377.5 1324.04 377.22 1323.48 376.66C1322.92 376.06 1322.64 375.32 1322.64 374.44V358.42C1322.64 356.98 1322.44 355.7 1322.04 354.58C1321.64 353.42 1320.94 352.5 1319.94 351.82C1318.98 351.1 1317.62 350.74 1315.86 350.74C1314.22 350.74 1312.78 351.1 1311.54 351.82C1310.3 352.5 1309.32 353.42 1308.6 354.58C1307.92 355.7 1307.58 356.98 1307.58 358.42V374.44C1307.58 375.32 1307.28 376.06 1306.68 376.66C1306.12 377.22 1305.42 377.5 1304.58 377.5C1303.7 377.5 1302.98 377.22 1302.42 376.66C1301.86 376.06 1301.58 375.32 1301.58 374.44V349C1301.58 348.12 1301.86 347.4 1302.42 346.84C1302.98 346.24 1303.7 345.94 1304.58 345.94C1305.42 345.94 1306.12 346.24 1306.68 346.84C1307.28 347.4 1307.58 348.12 1307.58 349V352.36L1306.5 352.96C1306.78 352.08 1307.26 351.2 1307.94 350.32C1308.66 349.4 1309.52 348.56 1310.52 347.8C1311.52 347 1312.64 346.38 1313.88 345.94C1315.12 345.46 1316.44 345.22 1317.84 345.22ZM1335.11 372.58C1334.75 372.02 1334.59 371.38 1334.63 370.66C1334.67 369.9 1335.09 369.26 1335.89 368.74C1336.45 368.38 1337.03 368.24 1337.63 368.32C1338.27 368.36 1338.87 368.66 1339.43 369.22C1340.55 370.46 1341.79 371.44 1343.15 372.16C1344.55 372.88 1346.23 373.24 1348.19 373.24C1348.99 373.2 1349.81 373.08 1350.65 372.88C1351.49 372.64 1352.21 372.24 1352.81 371.68C1353.41 371.08 1353.71 370.22 1353.71 369.1C1353.71 368.1 1353.39 367.3 1352.75 366.7C1352.11 366.1 1351.27 365.62 1350.23 365.26C1349.19 364.86 1348.07 364.5 1346.87 364.18C1345.59 363.82 1344.29 363.42 1342.97 362.98C1341.69 362.54 1340.53 361.98 1339.49 361.3C1338.45 360.58 1337.59 359.66 1336.91 358.54C1336.27 357.42 1335.95 356.04 1335.95 354.4C1335.95 352.52 1336.47 350.9 1337.51 349.54C1338.59 348.18 1339.97 347.12 1341.65 346.36C1343.37 345.6 1345.23 345.22 1347.23 345.22C1348.39 345.22 1349.61 345.38 1350.89 345.7C1352.17 345.98 1353.41 346.44 1354.61 347.08C1355.81 347.72 1356.85 348.56 1357.73 349.6C1358.13 350.12 1358.35 350.74 1358.39 351.46C1358.47 352.18 1358.15 352.82 1357.43 353.38C1356.95 353.78 1356.37 353.96 1355.69 353.92C1355.01 353.88 1354.45 353.66 1354.01 353.26C1353.25 352.3 1352.27 351.56 1351.07 351.04C1349.87 350.48 1348.51 350.2 1346.99 350.2C1346.23 350.2 1345.43 350.32 1344.59 350.56C1343.79 350.76 1343.11 351.14 1342.55 351.7C1341.99 352.26 1341.71 353.08 1341.71 354.16C1341.71 355.16 1342.03 355.96 1342.67 356.56C1343.35 357.16 1344.23 357.66 1345.31 358.06C1346.39 358.46 1347.57 358.82 1348.85 359.14C1350.09 359.46 1351.31 359.84 1352.51 360.28C1353.75 360.72 1354.85 361.3 1355.81 362.02C1356.81 362.7 1357.61 363.6 1358.21 364.72C1358.85 365.8 1359.17 367.18 1359.17 368.86C1359.17 370.82 1358.59 372.5 1357.43 373.9C1356.31 375.26 1354.87 376.3 1353.11 377.02C1351.39 377.74 1349.57 378.1 1347.65 378.1C1345.37 378.1 1343.09 377.7 1340.81 376.9C1338.57 376.06 1336.67 374.62 1335.11 372.58Z" fill="white"/>
</svg>
